<svg id="icon-horiz-pixelpad-reversed" xmlns="http://www.w3.org/2000/svg" width="193.355" height="41.812" viewBox="0 0 193.355 41.812">
  <g id="logo-pixelpad-logotype-colored" transform="translate(63.789 8.25)">
    <path id="Path_1221" data-name="Path 1221" d="M17.483-8.556A10.456,10.456,0,0,1,15.654-2.1,5.864,5.864,0,0,1,10.715.322a5.432,5.432,0,0,1-4.27-1.837V6.7H1.789V-17.435H6.107l.161,1.708a5.473,5.473,0,0,1,4.415-2.03,5.9,5.9,0,0,1,5.011,2.385A10.739,10.739,0,0,1,17.483-8.8Zm-4.657-.338a6.862,6.862,0,0,0-.862-3.754A2.808,2.808,0,0,0,9.458-13.97a3.049,3.049,0,0,0-3.013,1.676v7.138A3.1,3.1,0,0,0,9.491-3.432Q12.826-3.432,12.826-8.895ZM25.282,0H20.609V-17.435h4.673ZM20.335-21.946a2.293,2.293,0,0,1,.7-1.724,2.633,2.633,0,0,1,1.909-.677,2.639,2.639,0,0,1,1.9.677,2.28,2.28,0,0,1,.709,1.724,2.286,2.286,0,0,1-.717,1.74,2.646,2.646,0,0,1-1.893.677,2.646,2.646,0,0,1-1.893-.677A2.286,2.286,0,0,1,20.335-21.946Zm15.42,9.716,2.933-5.2h4.979L38.7-8.895,43.876,0h-5l-3.11-5.479L32.678,0H27.667l5.172-8.895-4.947-8.54h5ZM53.931.322A8.559,8.559,0,0,1,47.687-2.03,8.362,8.362,0,0,1,45.278-8.3V-8.75a10.532,10.532,0,0,1,1.015-4.7,7.45,7.45,0,0,1,2.876-3.19,8.073,8.073,0,0,1,4.246-1.12A7.236,7.236,0,0,1,59.047-15.5,9.167,9.167,0,0,1,61.1-9.1v1.9H50a4.326,4.326,0,0,0,1.362,2.739,4.116,4.116,0,0,0,2.876,1.031,5.026,5.026,0,0,0,4.206-1.95L60.731-2.82A6.991,6.991,0,0,1,57.9-.508,9.3,9.3,0,0,1,53.931.322ZM53.4-13.986a2.916,2.916,0,0,0-2.248.935,4.828,4.828,0,0,0-1.1,2.675h6.478v-.371a3.442,3.442,0,0,0-.838-2.393A3.01,3.01,0,0,0,53.4-13.986ZM68.659,0H63.986V-24.75h4.673Zm8.975-8.266V0H72.8V-23.461h9.152a10.589,10.589,0,0,1,4.649.967,7.124,7.124,0,0,1,3.086,2.747,7.66,7.66,0,0,1,1.08,4.052,6.736,6.736,0,0,1-2.361,5.438,9.832,9.832,0,0,1-6.534,1.99Zm0-3.916h4.318a4.246,4.246,0,0,0,2.925-.9,3.282,3.282,0,0,0,1.007-2.578,3.87,3.87,0,0,0-1.015-2.788,3.792,3.792,0,0,0-2.8-1.1H77.634Zm26.829,7.348H95.987L94.375,0h-5.14l8.733-23.461h4.479L111.23,0h-5.14ZM97.292-8.75h5.865l-2.949-8.782ZM113.421,0V-23.461h7.219a10.963,10.963,0,0,1,5.535,1.394,9.719,9.719,0,0,1,3.811,3.964,12.226,12.226,0,0,1,1.37,5.841v1.08a12.261,12.261,0,0,1-1.345,5.817,9.636,9.636,0,0,1-3.795,3.948A11.045,11.045,0,0,1,120.688,0Zm4.834-19.545V-3.883h2.336a5.249,5.249,0,0,0,4.334-1.853,8.374,8.374,0,0,0,1.531-5.3v-1.241a8.507,8.507,0,0,0-1.482-5.422,5.232,5.232,0,0,0-4.334-1.845Z" transform="translate(-1.789 24.75)" fill="#d9bcda"/>
    <path id="Path_1222" data-name="Path 1222" d="M17.483-8.556A10.456,10.456,0,0,1,15.654-2.1,5.864,5.864,0,0,1,10.715.322a5.432,5.432,0,0,1-4.27-1.837V6.7H1.789V-17.435H6.107l.161,1.708a5.473,5.473,0,0,1,4.415-2.03,5.9,5.9,0,0,1,5.011,2.385A10.739,10.739,0,0,1,17.483-8.8Zm-4.657-.338a6.862,6.862,0,0,0-.862-3.754A2.808,2.808,0,0,0,9.458-13.97a3.049,3.049,0,0,0-3.013,1.676v7.138A3.1,3.1,0,0,0,9.491-3.432Q12.826-3.432,12.826-8.895ZM25.282,0H20.609V-17.435h4.673ZM20.335-21.946a2.293,2.293,0,0,1,.7-1.724,2.633,2.633,0,0,1,1.909-.677,2.639,2.639,0,0,1,1.9.677,2.28,2.28,0,0,1,.709,1.724,2.286,2.286,0,0,1-.717,1.74,2.646,2.646,0,0,1-1.893.677,2.646,2.646,0,0,1-1.893-.677A2.286,2.286,0,0,1,20.335-21.946Zm15.42,9.716,2.933-5.2h4.979L38.7-8.895,43.876,0h-5l-3.11-5.479L32.678,0H27.667l5.172-8.895-4.947-8.54h5ZM53.931.322A8.559,8.559,0,0,1,47.687-2.03,8.362,8.362,0,0,1,45.278-8.3V-8.75a10.532,10.532,0,0,1,1.015-4.7,7.45,7.45,0,0,1,2.876-3.19,8.073,8.073,0,0,1,4.246-1.12A7.236,7.236,0,0,1,59.047-15.5,9.167,9.167,0,0,1,61.1-9.1v1.9H50a4.326,4.326,0,0,0,1.362,2.739,4.116,4.116,0,0,0,2.876,1.031,5.026,5.026,0,0,0,4.206-1.95L60.731-2.82A6.991,6.991,0,0,1,57.9-.508,9.3,9.3,0,0,1,53.931.322ZM53.4-13.986a2.916,2.916,0,0,0-2.248.935,4.828,4.828,0,0,0-1.1,2.675h6.478v-.371a3.442,3.442,0,0,0-.838-2.393A3.01,3.01,0,0,0,53.4-13.986ZM68.659,0H63.986V-24.75h4.673Z" transform="translate(-1.789 24.75)" fill="#fff"/>
  </g>
  <g id="logo-pixelpad-game-controller-white">
    <g id="Video_game_controller_icon_designed_by_Maico_Amorim" data-name="Video game controller icon designed by Maico Amorim" transform="translate(8.406 20.164)">
      <circle id="Ellipse_59" data-name="Ellipse 59" cx="2.213" cy="2.213" r="2.213" transform="translate(31.798 8.855)" fill="#fff"/>
      <circle id="Ellipse_60" data-name="Ellipse 60" cx="2.213" cy="2.213" r="2.213" transform="translate(36.228 4.43)" fill="#fff"/>
      <circle id="Ellipse_61" data-name="Ellipse 61" cx="2.213" cy="2.213" r="2.213" transform="translate(27.373 4.43)" fill="#fff"/>
      <circle id="Ellipse_62" data-name="Ellipse 62" cx="2.213" cy="2.213" r="2.213" transform="translate(31.798 0)" fill="#fff"/>
      <path id="Path_1110" data-name="Path 1110" d="M29.162,45.345H25.84V42.029a1.1,1.1,0,0,0-1.1-1.109H22.519a1.1,1.1,0,0,0-1.084,1.109V45.35H18.094A1.1,1.1,0,0,0,17,46.454h0v2.213a1.109,1.109,0,0,0,1.109,1.109h3.326V53.1a1.1,1.1,0,0,0,1.1,1.1h2.217a1.1,1.1,0,0,0,1.1-1.1h0V49.775h3.321a1.1,1.1,0,0,0,1.109-1.1h0V46.454a1.109,1.109,0,0,0-1.128-1.109Z" transform="translate(-17 -40.92)" fill="#fff"/>
    </g>
    <rect id="Rectangle_9" data-name="Rectangle 9" width="3.937" height="3.937" transform="translate(29.635 7.86)" fill="#fff"/>
    <rect id="Rectangle_10" data-name="Rectangle 10" width="3.937" height="3.937" transform="translate(33.572 3.937)" fill="#fff"/>
    <rect id="Rectangle_11" data-name="Rectangle 11" width="3.937" height="3.937" transform="translate(29.635 15.719)" fill="#fff"/>
    <rect id="Rectangle_12" data-name="Rectangle 12" width="3.937" height="3.937" transform="translate(41.451)" fill="#fff"/>
    <rect id="Rectangle_13" data-name="Rectangle 13" width="3.937" height="3.937" transform="translate(37.514 7.86)" fill="#fff"/>
    <rect id="Rectangle_14" data-name="Rectangle 14" width="3.922" height="3.937" transform="translate(33.587 11.797)" fill="#fff"/>
    <path id="Path_1112" data-name="Path 1112" d="M52.967,28.335h0a15,15,0,0,0-10.619-4.4h-.986v3.942h.986a11.071,11.071,0,1,1,0,22.143v0a11.063,11.063,0,0,1-8.87-4.435H23.825a11.073,11.073,0,1,1-8.87-17.71H29.59V23.93H14.97A15.01,15.01,0,1,0,25.594,49.524h6.12A15.006,15.006,0,0,0,52.967,28.335Z" transform="translate(0.06 -12.138)" fill="#fff"/>
  </g>
</svg>
