<svg id="svg" xmlns="http://www.w3.org/2000/svg" xmlns:xlink="http://www.w3.org/1999/xlink" width="400" height="400" viewBox="0, 0, 400,400"><g id="svgg"><path id="path0" d="M264.532 82.910 L 254.738 106.055 260.279 106.297 C 271.330 106.779,280.144 110.465,285.642 116.904 C 290.450 122.535,291.733 123.026,295.529 120.682 C 297.653 119.371,322.656 94.420,322.656 93.611 C 322.656 91.904,311.741 81.377,304.297 75.905 C 295.561 69.484,277.814 59.766,274.824 59.766 C 274.536 59.766,270.188 69.545,264.532 82.910 M186.067 62.051 C 181.703 63.560,179.677 66.439,177.508 74.219 C 176.939 76.260,169.770 98.470,161.578 123.576 L 146.681 169.222 145.443 165.373 C 121.497 90.919,121.210 90.020,118.110 79.531 C 114.735 68.116,113.598 66.074,109.573 64.200 L 107.617 63.289 83.564 63.285 L 59.511 63.281 58.666 64.180 C 54.480 68.637,57.027 75.744,102.656 186.914 C 128.335 249.479,127.897 248.560,133.375 251.367 L 137.187 253.320 144.863 253.315 C 152.489 253.310,153.388 253.209,162.385 251.344 C 165.639 250.670,171.614 237.222,205.675 153.906 C 212.834 136.396,220.214 118.467,222.076 114.063 C 239.442 72.982,241.712 64.588,236.165 61.956 C 234.049 60.951,189.002 61.037,186.067 62.051 M237.182 146.457 C 231.341 159.117,226.563 169.622,226.563 169.800 C 226.563 169.978,228.540 170.623,230.957 171.233 C 248.233 175.591,269.464 184.923,271.768 189.172 C 272.919 191.295,272.731 196.884,271.414 199.695 C 265.065 213.240,237.293 211.469,219.840 196.406 L 217.610 194.481 217.062 195.776 C 216.760 196.488,212.340 206.555,207.239 218.148 L 197.964 239.226 199.080 240.136 C 204.116 244.244,217.393 251.027,225.977 253.879 C 275.212 270.235,326.685 242.089,331.651 196.094 C 334.621 168.584,309.949 143.891,263.867 128.251 C 260.025 126.947,248.362 123.438,247.870 123.438 C 247.832 123.438,243.022 133.796,237.182 146.457 M333.009 272.922 C 332.365 273.029,331.709 273.321,331.550 273.570 C 331.085 274.301,331.186 315.947,331.654 316.823 C 332.148 317.744,344.342 318.002,345.234 317.109 C 345.915 316.429,345.911 273.612,345.231 273.192 C 344.682 272.852,334.739 272.633,333.009 272.922 M228.906 274.992 C 228.171 275.456,227.798 338.503,228.523 339.857 C 229.032 340.808,241.856 341.066,242.457 340.137 C 242.631 339.868,242.889 335.869,243.031 331.250 C 243.316 321.920,243.735 319.703,245.388 318.775 C 246.781 317.993,246.877 318.091,252.031 325.548 C 257.140 332.940,260.579 337.591,262.240 339.355 L 263.435 340.625 271.032 340.625 L 278.629 340.625 278.387 338.037 C 278.106 335.028,279.079 336.460,266.125 319.987 C 261.338 313.900,257.422 308.760,257.422 308.566 C 257.422 308.223,264.190 300.405,268.823 295.396 C 271.082 292.953,271.989 290.053,270.736 289.278 C 269.905 288.764,266.584 288.593,262.653 288.861 L 258.446 289.148 256.274 291.230 C 255.079 292.375,251.641 296.116,248.633 299.542 L 243.164 305.772 242.969 290.567 C 242.802 277.622,242.686 275.306,242.188 274.991 C 241.424 274.509,229.670 274.509,228.906 274.992 M54.935 278.714 C 54.105 279.545,53.940 335.815,54.766 336.641 C 55.658 337.533,67.852 337.276,68.346 336.354 C 68.595 335.889,68.750 331.697,68.750 325.444 C 68.750 316.734,68.837 315.203,69.364 314.676 C 70.284 313.756,88.322 313.756,89.086 314.676 C 89.472 315.142,89.610 317.796,89.659 325.711 C 89.694 331.443,89.750 336.353,89.783 336.621 C 89.900 337.562,103.390 337.293,103.900 336.340 C 104.768 334.718,104.233 279.330,103.343 278.679 C 102.269 277.894,91.496 277.883,90.424 278.667 C 89.729 279.175,89.681 279.868,89.654 289.702 C 89.638 295.473,89.488 300.415,89.321 300.684 C 89.092 301.051,86.799 301.172,80.045 301.172 L 71.074 301.172 70.693 300.170 C 70.483 299.617,70.313 294.837,70.313 289.502 C 70.313 281.778,70.201 279.685,69.759 279.079 C 68.970 277.999,55.970 277.680,54.935 278.714 M133.594 287.719 C 120.842 290.467,113.910 303.415,116.962 318.782 C 120.235 335.260,139.796 342.994,151.615 332.483 L 153.425 330.872 153.590 333.452 C 153.714 335.402,153.934 336.164,154.491 336.571 C 155.465 337.283,165.235 337.343,165.938 336.641 C 166.615 335.963,166.615 288.255,165.938 287.578 C 165.348 286.988,157.306 286.935,156.224 287.514 C 155.557 287.871,155.469 288.362,155.467 291.713 L 155.465 295.508 154.197 294.140 C 148.544 288.040,141.823 285.945,133.594 287.719 M195.898 287.369 C 188.602 288.500,182.765 292.166,179.409 297.726 C 174.317 306.162,176.553 323.965,183.649 331.467 C 190.620 338.838,209.446 339.157,216.371 332.021 C 218.429 329.901,218.541 330.290,214.395 325.165 L 210.821 320.746 209.125 321.912 C 198.800 329.016,185.376 318.120,190.551 306.836 C 193.639 300.102,203.297 297.678,209.173 302.163 L 210.808 303.411 214.421 298.875 L 218.035 294.338 216.732 293.235 C 211.117 288.479,203.171 286.242,195.898 287.369 M296.786 287.717 C 289.046 289.593,285.330 294.294,285.378 302.148 C 285.434 311.458,290.712 317.578,298.684 317.578 C 303.668 317.578,306.250 319.025,306.250 321.816 C 306.250 327.419,298.972 327.605,292.444 322.170 L 290.551 320.594 286.096 325.037 C 280.823 330.295,280.922 329.836,284.473 332.551 C 301.572 345.620,323.615 337.582,320.708 319.336 C 319.434 311.335,313.837 306.648,305.547 306.638 C 301.061 306.633,298.047 304.554,298.047 301.467 C 298.047 296.818,304.853 296.674,309.590 301.221 L 311.954 303.491 315.637 299.793 L 319.319 296.095 318.578 294.719 C 315.347 288.719,305.588 285.583,296.786 287.717 M145.204 301.105 C 150.873 304.038,153.391 311.381,150.720 317.191 C 144.946 329.754,126.205 324.643,127.456 310.846 C 128.209 302.541,137.804 297.275,145.204 301.105 M332.520 324.494 C 331.331 324.723,331.202 325.502,331.333 331.641 L 331.445 336.914 338.477 336.914 L 345.508 336.914 345.616 330.951 L 345.724 324.988 344.711 324.604 C 343.736 324.233,334.317 324.148,332.520 324.494 " stroke="none" fill="#ffffff" fill-rule="evenodd"></path></g></svg>
